<svg id="Component_55_1" data-name="Component 55 – 1" xmlns="http://www.w3.org/2000/svg" width="306" height="83" viewBox="0 0 306 83">
  <g id="Group_11966" data-name="Group 11966">
    <g id="Group_3360" data-name="Group 3360">
      <path id="Path_4036" data-name="Path 4036" d="M163.508,399.416a3.554,3.554,0,0,1-1.083,2.773,4.779,4.779,0,0,1-3.3.985h-5.6V391.516h5.633a4.951,4.951,0,0,1,3.121.783,2.75,2.75,0,0,1,.959,2.252,2.249,2.249,0,0,1-.41,1.453,3.481,3.481,0,0,1-.993.835,2.683,2.683,0,0,1,1.233.955,2.774,2.774,0,0,1,.434,1.622m-3.436-4.428a1.027,1.027,0,0,0-.211-.658.992.992,0,0,0-.8-.266h-2.432v1.849h2.432a1.019,1.019,0,0,0,.793-.256.987.987,0,0,0,.219-.67m.27,4.488a1.016,1.016,0,0,0-1.148-1.116h-2.566v2.264h2.546a1.125,1.125,0,0,0,.885-.324,1.21,1.21,0,0,0,.282-.824" transform="translate(-120.207 -353.412)" fill="#161615"/>
      <rect id="Rectangle_4719" data-name="Rectangle 4719" width="3.302" height="11.658" transform="translate(44.597 38.104)" fill="#161615"/>
      <path id="Path_4035" data-name="Path 4035" d="M185.552,403.174l-2.783-3.848c-.134-.176-.284-.394-.465-.656s-.355-.524-.524-.783-.334-.512-.483-.746-.266-.413-.343-.547c.021.134.036.318.049.558s.022.5.033.785.019.574.019.876v4.362h-3.1V391.516H180.8l2.567,3.449c.134.175.291.395.472.665s.365.531.544.8.339.52.484.748.251.412.315.532a4.436,4.436,0,0,1-.048-.556c-.013-.24-.027-.5-.04-.781s-.012-.574-.012-.877v-3.977h3.1v11.658Z" transform="translate(-128.361 -353.412)" fill="#161615"/>
      <path id="Path_4034" data-name="Path 4034" d="M205.466,400.562a4.117,4.117,0,0,1-2.714,2.512,7.179,7.179,0,0,1-2.039.284,7.084,7.084,0,0,1-2.035-.284,4.047,4.047,0,0,1-1.608-.909,4.276,4.276,0,0,1-1.055-1.6,6.413,6.413,0,0,1-.388-2.365V391.52h3.3V398.2a2.891,2.891,0,0,0,.44,1.7,1.6,1.6,0,0,0,1.39.616,1.538,1.538,0,0,0,1.374-.616,2.937,2.937,0,0,0,.43-1.7V391.52h3.294V398.2a6.439,6.439,0,0,1-.389,2.365" transform="translate(-134.259 -353.413)" fill="#161615"/>
      <path id="Path_4033" data-name="Path 4033" d="M222.359,399.5a3.874,3.874,0,0,1-.36,1.717,3.126,3.126,0,0,1-1,1.163,4.521,4.521,0,0,1-1.521.668,8.121,8.121,0,0,1-1.931.217,8.875,8.875,0,0,1-2.706-.411,9.011,9.011,0,0,1-2.209-1l1.566-2.534a5.6,5.6,0,0,0,.743.425,7.2,7.2,0,0,0,.884.374,6.764,6.764,0,0,0,.921.269,4.215,4.215,0,0,0,.867.1,2.829,2.829,0,0,0,1.189-.17.6.6,0,0,0,.329-.58.541.541,0,0,0-.091-.3,1,1,0,0,0-.322-.26,3.318,3.318,0,0,0-.6-.25c-.257-.08-.578-.169-.969-.259a15.752,15.752,0,0,1-1.827-.53,4.3,4.3,0,0,1-1.3-.71,2.681,2.681,0,0,1-.779-1.026,3.767,3.767,0,0,1-.257-1.478,3.47,3.47,0,0,1,.324-1.5,3.38,3.38,0,0,1,.927-1.167,4.35,4.35,0,0,1,1.445-.748,6.266,6.266,0,0,1,1.9-.268,8.72,8.72,0,0,1,2.606.349,7.5,7.5,0,0,1,2.041,1l-1.567,2.533a6.972,6.972,0,0,0-1.563-.815,4.9,4.9,0,0,0-1.685-.282,1.605,1.605,0,0,0-.964.2.656.656,0,0,0-.233.517.481.481,0,0,0,.091.29.875.875,0,0,0,.307.236,4.509,4.509,0,0,0,.583.22c.245.069.56.152.933.239a14.152,14.152,0,0,1,1.9.581,4.77,4.77,0,0,1,1.313.749,2.693,2.693,0,0,1,.769,1.034,3.69,3.69,0,0,1,.251,1.417" transform="translate(-139.934 -353.319)" fill="#161615"/>
      <g id="Group_3347" data-name="Group 3347">
        <rect id="Rectangle_61" data-name="Rectangle 61" width="1.181" height="1.18" transform="translate(36.217 28.292)" fill="#8c8b8b"/>
        <rect id="Rectangle_62" data-name="Rectangle 62" width="1.174" height="1.18" transform="translate(37.607 28.292)" fill="#8c8b8b"/>
        <rect id="Rectangle_63" data-name="Rectangle 63" width="1.179" height="1.18" transform="translate(38.987 28.292)" fill="#8c8b8b"/>
        <rect id="Rectangle_64" data-name="Rectangle 64" width="1.175" height="1.18" transform="translate(40.376 28.292)" fill="#8c8b8b"/>
        <rect id="Rectangle_65" data-name="Rectangle 65" width="1.181" height="1.181" transform="translate(36.217 26.927)" fill="#8c8b8b"/>
        <rect id="Rectangle_66" data-name="Rectangle 66" width="1.174" height="1.181" transform="translate(37.607 26.927)" fill="#8c8b8b"/>
        <rect id="Rectangle_67" data-name="Rectangle 67" width="1.179" height="1.181" transform="translate(38.987 26.927)" fill="#8c8b8b"/>
        <rect id="Rectangle_68" data-name="Rectangle 68" width="1.175" height="1.181" transform="translate(40.376 26.927)" fill="#8c8b8b"/>
        <rect id="Rectangle_69" data-name="Rectangle 69" width="1.178" height="1.181" transform="translate(43.148 26.927)" fill="#8c8b8b"/>
        <rect id="Rectangle_70" data-name="Rectangle 70" width="1.181" height="1.177" transform="translate(36.217 25.572)" fill="#8c8b8b"/>
        <rect id="Rectangle_71" data-name="Rectangle 71" width="1.174" height="1.177" transform="translate(37.607 25.572)" fill="#8c8b8b"/>
        <rect id="Rectangle_72" data-name="Rectangle 72" width="1.175" height="1.177" transform="translate(40.376 25.572)" fill="#8c8b8b"/>
        <rect id="Rectangle_73" data-name="Rectangle 73" width="1.179" height="1.177" transform="translate(41.759 25.572)" fill="#8c8b8b"/>
        <rect id="Rectangle_74" data-name="Rectangle 74" width="1.178" height="1.177" transform="translate(43.148 25.572)" fill="#8c8b8b"/>
        <rect id="Rectangle_75" data-name="Rectangle 75" width="1.174" height="1.176" transform="translate(37.607 24.211)" fill="#8c8b8b"/>
        <rect id="Rectangle_76" data-name="Rectangle 76" width="1.179" height="1.176" transform="translate(38.987 24.211)" fill="#8c8b8b"/>
        <rect id="Rectangle_77" data-name="Rectangle 77" width="1.175" height="1.176" transform="translate(40.376 24.211)" fill="#8c8b8b"/>
        <rect id="Rectangle_78" data-name="Rectangle 78" width="1.179" height="1.176" transform="translate(41.759 24.211)" fill="#8c8b8b"/>
        <rect id="Rectangle_79" data-name="Rectangle 79" width="1.185" height="1.176" transform="translate(44.529 24.211)" fill="#8c8b8b"/>
        <rect id="Rectangle_80" data-name="Rectangle 80" width="1.174" height="1.18" transform="translate(37.607 22.85)" fill="#8c8b8b"/>
        <rect id="Rectangle_81" data-name="Rectangle 81" width="1.179" height="1.18" transform="translate(38.987 22.85)" fill="#8c8b8b"/>
        <rect id="Rectangle_82" data-name="Rectangle 82" width="1.175" height="1.18" transform="translate(40.376 22.85)" fill="#8c8b8b"/>
        <rect id="Rectangle_83" data-name="Rectangle 83" width="1.179" height="1.18" transform="translate(41.759 22.85)" fill="#8c8b8b"/>
        <rect id="Rectangle_84" data-name="Rectangle 84" width="1.178" height="1.18" transform="translate(43.148 22.85)" fill="#8c8b8b"/>
        <rect id="Rectangle_85" data-name="Rectangle 85" width="1.185" height="1.18" transform="translate(44.529 22.85)" fill="#8c8b8b"/>
        <rect id="Rectangle_86" data-name="Rectangle 86" width="1.18" height="1.18" transform="translate(45.915 22.85)" fill="#8c8b8b"/>
        <rect id="Rectangle_87" data-name="Rectangle 87" width="1.18" height="1.18" transform="translate(48.691 22.85)" fill="#8c8b8b"/>
        <rect id="Rectangle_88" data-name="Rectangle 88" width="1.175" height="1.178" transform="translate(40.376 21.492)" fill="#8c8b8b"/>
        <rect id="Rectangle_89" data-name="Rectangle 89" width="1.179" height="1.178" transform="translate(41.759 21.492)" fill="#8c8b8b"/>
        <rect id="Rectangle_90" data-name="Rectangle 90" width="1.185" height="1.178" transform="translate(44.529 21.492)" fill="#8c8b8b"/>
        <rect id="Rectangle_91" data-name="Rectangle 91" width="1.178" height="1.178" transform="translate(47.303 21.492)" fill="#8c8b8b"/>
        <rect id="Rectangle_92" data-name="Rectangle 92" width="1.179" height="1.182" transform="translate(38.987 20.131)" fill="#8c8b8b"/>
        <rect id="Rectangle_93" data-name="Rectangle 93" width="1.175" height="1.182" transform="translate(40.376 20.131)" fill="#8c8b8b"/>
        <rect id="Rectangle_94" data-name="Rectangle 94" width="1.179" height="1.182" transform="translate(41.759 20.131)" fill="#8c8b8b"/>
        <rect id="Rectangle_95" data-name="Rectangle 95" width="1.178" height="1.182" transform="translate(43.148 20.131)" fill="#8c8b8b"/>
        <rect id="Rectangle_96" data-name="Rectangle 96" width="1.185" height="1.182" transform="translate(44.529 20.131)" fill="#8c8b8b"/>
        <rect id="Rectangle_97" data-name="Rectangle 97" width="1.178" height="1.182" transform="translate(47.303 20.131)" fill="#8c8b8b"/>
        <rect id="Rectangle_98" data-name="Rectangle 98" width="1.185" height="1.182" transform="translate(54.228 20.131)" fill="#8c8b8b"/>
        <rect id="Rectangle_99" data-name="Rectangle 99" width="1.175" height="1.18" transform="translate(40.376 18.769)" fill="#8c8b8b"/>
        <rect id="Rectangle_100" data-name="Rectangle 100" width="1.178" height="1.18" transform="translate(43.148 18.769)" fill="#8c8b8b"/>
        <rect id="Rectangle_101" data-name="Rectangle 101" width="1.18" height="1.18" transform="translate(45.915 18.769)" fill="#8c8b8b"/>
        <rect id="Rectangle_102" data-name="Rectangle 102" width="1.18" height="1.18" transform="translate(48.691 18.769)" fill="#8c8b8b"/>
        <rect id="Rectangle_103" data-name="Rectangle 103" width="1.185" height="1.18" transform="translate(44.529 17.41)" fill="#8c8b8b"/>
        <rect id="Rectangle_104" data-name="Rectangle 104" width="1.178" height="1.18" transform="translate(47.303 17.41)" fill="#8c8b8b"/>
        <rect id="Rectangle_105" data-name="Rectangle 105" width="1.18" height="1.178" transform="translate(45.915 16.054)" fill="#8c8b8b"/>
        <rect id="Rectangle_106" data-name="Rectangle 106" width="1.18" height="1.178" transform="translate(48.691 16.054)" fill="#8c8b8b"/>
        <rect id="Rectangle_107" data-name="Rectangle 107" width="1.18" height="1.178" transform="translate(51.459 16.054)" fill="#8c8b8b"/>
        <rect id="Rectangle_108" data-name="Rectangle 108" width="1.185" height="1.182" transform="translate(44.529 14.689)" fill="#8c8b8b"/>
        <rect id="Rectangle_109" data-name="Rectangle 109" width="1.18" height="1.18" transform="translate(51.459 13.329)" fill="#8c8b8b"/>
        <rect id="Rectangle_110" data-name="Rectangle 110" width="1.181" height="1.18" transform="translate(55.612 13.329)" fill="#8c8b8b"/>
        <rect id="Rectangle_111" data-name="Rectangle 111" width="1.18" height="1.183" transform="translate(51.459 11.968)" fill="#8c8b8b"/>
        <rect id="Rectangle_112" data-name="Rectangle 112" width="1.18" height="1.181" transform="translate(51.459 10.609)" fill="#8c8b8b"/>
        <rect id="Rectangle_113" data-name="Rectangle 113" width="1.178" height="1.181" transform="translate(52.846 9.25)" fill="#8c8b8b"/>
        <rect id="Rectangle_114" data-name="Rectangle 114" width="3.014" height="0.566" transform="translate(32.984 25.667)" fill="#161615"/>
        <path id="Path_28" data-name="Path 28" d="M143.521,369.719h5.056c-1.406,1.574-4.714,4.242-12.21,6.9-13.292,4.727-26.282-.947-18.675-11.747,7.436-10.567,19.215-13.06,20.449-13.266s3.284-.332,2.284-.027-2.877,1.081-2.769,1.361,1.332-.023,2.02-.128.7.386.286.592-.742,0-.487.255.105.436-.31.618-1.538.1-1.925.464.717.353,1.491.047a4.325,4.325,0,0,1,1.8-.435c.843-.049.049.463.46.642s2.492-.23,1.952.1,1.029.336-.052.646-11.185,1.436-18.938,6.517-8.773,15.6,4.416,12.982c9.615-1.911,13.637-6.3,15.114-8.537v3.018Zm-5.919-13.93c-.668-.076-.614.152-.8.242-.232.114.435.218.953.2s.511-.364-.156-.438m-.489-2.384c-.486-.052-.462.1-1.1.205s-1,.766-.361.694a4.7,4.7,0,0,0,1.49-.338c.565-.228-.025-.562-.025-.562" transform="translate(-107.491 -340.02)" fill="#8c8b8b"/>
        <path id="Path_29" data-name="Path 29" d="M132.288,370.37a6.286,6.286,0,1,1,6.284,6.283,6.283,6.283,0,0,1-6.284-6.283" transform="translate(-113.117 -344.255)" fill="#ef7000"/>
        <path id="Path_30" data-name="Path 30" d="M135.27,368.541a1.231,1.231,0,1,1,1.628.629,1.234,1.234,0,0,1-1.628-.629" transform="translate(-114.077 -345.166)" fill="#fff"/>
        <path id="Path_31" data-name="Path 31" d="M155.239,351.558c0-.284-1.207-.306-1.388-.049s-.819.154-.873.382.541.179,1.055-.021,1.207-.029,1.207-.312" transform="translate(-120.022 -339.998)" fill="#8c8b8b"/>
        <path id="Path_32" data-name="Path 32" d="M156.3,352.763a2.576,2.576,0,0,0-1.719-.1,3.184,3.184,0,0,1-1.052.364c-.23,0,.1.28.72.28s.538-.158,1.154-.055,1.074-.279.9-.488" transform="translate(-120.181 -340.409)" fill="#8c8b8b"/>
        <path id="Path_33" data-name="Path 33" d="M154.507,354.416c-.64.158-.792.232-1.131.31s-.022.334.72.181a9.574,9.574,0,0,1,1.332-.231c.362-.029.309-.36-.128-.388a2.039,2.039,0,0,0-.794.127" transform="translate(-120.111 -340.985)" fill="#8c8b8b"/>
        <path id="Path_34" data-name="Path 34" d="M158.616,354.06c-.195-.292-.8-.1-1.053.052s-.2.178.231.259.836-.18.823-.31" transform="translate(-121.503 -340.858)" fill="#8c8b8b"/>
        <path id="Path_35" data-name="Path 35" d="M159.859,355.015c-.159-.077-1.434.1-1.64.052s-.488.2-.925.2-1.124.028-.871.306,1.364.131,1.846.025a3.813,3.813,0,0,1,1.466-.227c.458.1.189-.343.125-.36" transform="translate(-121.154 -341.222)" fill="#8c8b8b"/>
        <rect id="Rectangle_115" data-name="Rectangle 115" width="15.495" height="0.566" transform="translate(2.221 25.648)" fill="#161615"/>
        <rect id="Rectangle_116" data-name="Rectangle 116" width="0.561" height="15.498" transform="translate(25.186 34.349)" fill="#161615"/>
        <rect id="Rectangle_117" data-name="Rectangle 117" width="0.561" height="15.491" transform="translate(25.186 2.225)" fill="#161615"/>
        <rect id="Rectangle_118" data-name="Rectangle 118" width="44.898" height="0.566" transform="translate(44.543 25.667)" fill="#161615"/>
        <path id="Path_36" data-name="Path 36" d="M237.7,372.707a1.129,1.129,0,1,1,1.13,1.132,1.129,1.129,0,0,1-1.13-1.132" transform="translate(-148.303 -346.757)" fill="#c60810"/>
        <path id="Path_37" data-name="Path 37" d="M140.043,335.448a1.129,1.129,0,1,1,1.128,1.132,1.125,1.125,0,0,1-1.128-1.132" transform="translate(-115.705 -334.32)" fill="#c60810"/>
        <path id="Path_42" data-name="Path 42" d="M140.061,410.211a1.128,1.128,0,1,1,1.127,1.131,1.125,1.125,0,0,1-1.127-1.131" transform="translate(-115.711 -359.276)" fill="#c60810"/>
        <path id="Path_43" data-name="Path 43" d="M103.511,372.679a1.128,1.128,0,1,1,1.128,1.13,1.128,1.128,0,0,1-1.128-1.13" transform="translate(-103.511 -346.747)" fill="#c60810"/>
      </g>
      <path id="Path_4037" data-name="Path 4037" d="M8.093-12.307H6.462v4.579c0,1.305-.641,2.109-1.678,2.109S3.118-6.446,3.118-7.751v-4.556H1.487v4.579c0,2.377,1.328,3.705,3.3,3.705,2.074,0,3.309-1.363,3.309-3.729Zm8.646,0H15.131v3.449c0,.454.023,1.48.023,1.783-.1-.21-.373-.618-.571-.921l-2.89-4.311H10.132v8.156H11.74V-7.74c0-.454-.023-1.48-.023-1.783.1.21.373.618.571.921l2.995,4.451h1.456Zm3.845,0H18.953v8.156h1.631Zm7.236,0-1.5,4.719c-.151.478-.3,1.037-.373,1.34-.07-.291-.233-.886-.385-1.34l-1.538-4.719H22.216l2.9,8.156H26.7l2.9-8.156Zm9.135,6.56H32.749V-7.716h2.342V-9.3H32.749v-1.41h4.032v-1.6H31.118v8.156h5.838Zm5.5-2.878H40.323v-2.1h2.132c.722,0,1.165.3,1.165,1.037C43.62-8.975,43.212-8.625,42.455-8.625ZM43.737-7.32a2.325,2.325,0,0,0,1.561-2.4,2.53,2.53,0,0,0-2.808-2.587h-3.8v8.156h1.631V-7.087h1.643l1.456,2.936H45.3Zm6.525-1.818c-1.293-.3-1.643-.466-1.643-.979,0-.361.291-.734,1.165-.734a2.487,2.487,0,0,1,1.853.839l1.177-1.142a3.9,3.9,0,0,0-2.971-1.282c-1.608,0-2.913.909-2.913,2.389,0,1.608,1.049,2.086,2.552,2.435,1.538.35,1.818.583,1.818,1.107,0,.618-.454.886-1.422.886a2.642,2.642,0,0,1-2.086-.932L46.615-5.5a3.782,3.782,0,0,0,3.169,1.48c2.226,0,3.2-1.049,3.2-2.6C52.988-8.392,51.555-8.835,50.262-9.138Zm6.2-3.169H54.829v8.156h1.631Zm8,0H58.15V-10.7h2.342v6.548h1.631V-10.7h2.342Zm6.735,0-1.154,1.934c-.3.513-.734,1.293-.886,1.6-.151-.3-.594-1.107-.886-1.6l-1.154-1.934H65.246l3.088,4.964v3.193h1.631V-7.379l3.088-4.929Z" transform="translate(31.799 66.561)" fill="#007fcc"/>
    </g>
    <text id="Faculty_of_Digital_Communication_and_Hotel_Tourism" data-name="Faculty of Digital Communication
and Hotel &amp; Tourism" transform="translate(32.304 72)" fill="#007fcc" font-size="9" font-family="Interstate-Bold, Interstate" font-weight="700"><tspan x="0" y="0">Faculty of Digital Communication</tspan><tspan x="0" y="9">and Hotel &amp; Tourism</tspan></text>
  </g>
  <text id="Mass_Communication" data-name="Mass 
Communication" transform="translate(210 67)" fill="#007fcc" font-size="13" font-family="Interstate-Bold, Interstate" font-weight="700"><tspan x="0" y="0">Mass </tspan><tspan x="0" y="13">Communication</tspan></text>
  <g id="Group_11967" data-name="Group 11967" transform="translate(192.111 37.023)">
    <rect id="Rectangle_120" data-name="Rectangle 120" width="0.666" height="44.688" fill="#161615"/>
  </g>
</svg>
